<?xml version="1.0" encoding="UTF-8"?>
<svg id="Layer_1" data-name="Layer 1" xmlns="http://www.w3.org/2000/svg" viewBox="0 0 226.77 226.77">
  <defs>
    <style>
      .cls-1, .cls-2, .cls-3 {
        stroke-width: 0px;
      }

      .cls-2 {
        fill: #bc9e32;
      }

      .cls-3 {
        fill: #fff;
      }
    </style>
  </defs>
  <rect class="cls-3" width="230.56" height="230.56"/>
  <path class="cls-2" d="m135.18,44.7c-6.3-.75-6.91-1.35-7.65-7.65q0,6.3,0,0c-.75,6.3-1.35,6.91-7.65,7.65,6.3.75,6.91,1.35,7.65,7.65q0-6.3,0,0c.75-6.3,1.35-6.91,7.65-7.65Z"/>
  <g>
    <g>
      <path class="cls-1" d="m132.87,143.49c-.16.36-.3.68-.45,1-3.09,6.54-7.8,11.42-14.58,14.14-4.73,1.89-9.67,2.39-14.72,2.01-9.36-.7-16.16-5.12-19.98-13.82-1.88-4.28-2.69-8.81-2.99-13.44-.43-6.55.07-12.98,2.63-19.11,1.63-3.91,4.02-7.52,7.34-10.19,3.6-2.9,7.81-4.3,12.39-4.69.46-.04.91-.07,1.37-.09,3.24-.16,6.52.05,9.66.87,3.86,1.01,7.37,3.01,10.13,5.9,3.31,3.46,5.36,7.93,6.91,12.46.2.06.3-.23.3-.44,0-6.17.1-12.45.1-18.63-.71.82-1.56,1.77-2.55,2.22-.88.4-1.87.46-2.84.41-1.68-.08-3.32-.47-4.95-.87-5.01-1.24-10.07-2.69-15.28-2.63-4.82.06-9.6.77-14.14,2.42-1.61.58-3.18,1.28-4.69,2.08-1.39.74-2.73,1.58-4,2.51-7.6,5.55-12.33,12.91-12.91,22.41-.67,10.98,3.71,19.78,12.57,26.27,7.14,5.23,16.68,7.46,25.44,6.93.66-.04,1.34-.16,2.01-.16,3.08-.3,6.19-1.01,9.08-2.14,2.71-1.07,5.25-2.57,7.48-4.46,1.87-1.59,3.5-3.43,4.89-5.45,1.1-1.6,1.96-3.37,2.98-5.16-.57-.17-.86-.26-1.19-.36Z"/>
      <path class="cls-1" d="m123.74,130.45c-.11,1.55-.01,4.57-.09,8.46-.06,3.25-.08,6.52-.41,9.76-.2,1.96-.44,3.92-.82,5.86-.12.62-.21,1.27-.47,1.85-.12.28-.29.68-.41.97.04-.03.6-.38.67-.42,1.62-.97,3.1-2.21,4.43-3.55,1.21-1.21,2.25-2.62,2.89-4.21.23-.57.45-1.19.54-1.81.11-.69.15-1.4.21-2.09.07-.81.11-1.63.13-2.45.03-.95.05-1.9.08-2.84.07-2.12.18-4.24.23-6.36.04-1.86.06-3.73.07-5.59,0-.61,0-1.04.02-1.41.01-.7.02-1.24.03-1.47,0-.02,0-.08,0-.1,0-.38,0-1.12-.03-2.61-.01-.51-.08-1.03-.2-1.52-.05-.2-.11-.39-.16-.59-1.52-4.39-3.54-8.69-6.73-12.06.02,12.01.03,22.14.02,22.2Z"/>
      <path class="cls-1" d="m123.71,100.69c.62.1,1.25.19,1.88.22.96.05,1.96-.01,2.84-.41.98-.45,1.83-1.39,2.54-2.21.09-17.71.19-40.35.19-40.35h-16.74v.56h9.23c.02,14.06.04,28.13.06,42.19Z"/>
    </g>
    <g>
      <g>
        <path class="cls-1" d="m67.33,182.88c-2.18,0-4.06-1.58-4.06-3.92s2.04-3.9,4.25-3.9c1.35,0,2.22.53,2.72,1.13l-1.26,1.77h-.03c.59-1.39-.27-2.67-1.91-2.67-1.51,0-2.79,1.1-2.79,3.1,0,2.26,1.64,4.03,3.49,4.03.82,0,1.8-.37,2.27-.93l.08.05c-.46.73-1.41,1.34-2.75,1.34Z"/>
        <path class="cls-1" d="m78.19,180.76l-.5,1.97-.06.24-.37-.24h-5.46v-.05c.44-.16.82-.39.82-.77v-6.08c0-.39-.38-.5-.82-.56v-.05h5.67l.33,1.6-.04.02c-.67-.91-1.12-1.45-2.2-1.45h-2.06v3.5h1.85c1.03,0,1.25-.29,1.5-.98v2.13c-.26-.69-.47-.98-1.5-.98h-1.85v3.5h2.36c1.08,0,1.47-.68,2.29-1.82l.04.02Z"/>
        <path class="cls-1" d="m85.68,180.72l-.5,2.01-.06.24-.37-.24h-5.17v-.05c.44-.16.82-.28.82-.56v-6.29c0-.39-.38-.5-.82-.56v-.05h2.62v.05c-.55.05-.92.17-.92.56v6.74h1.86c1.29,0,1.8-.63,2.5-1.86l.04.02Z"/>
        <path class="cls-1" d="m93.47,180.76l-.5,1.97-.06.24-.37-.24h-5.46v-.05c.44-.16.82-.39.82-.77v-6.08c0-.39-.38-.5-.82-.56v-.05h5.67l.33,1.6-.04.02c-.67-.91-1.12-1.45-2.2-1.45h-2.06v3.5h1.85c1.03,0,1.25-.29,1.5-.98v2.13c-.26-.69-.47-.98-1.5-.98h-1.85v3.5h2.36c1.08,0,1.47-.68,2.29-1.82l.04.02Z"/>
        <path class="cls-1" d="m101.41,180.22c0,1.35-1.2,2.5-3.22,2.5h-3.33v-.05c.44-.16.82-.39.82-.77v-6.08c0-.39-.38-.5-.82-.56v-.05h2.9c1.74,0,2.94.45,2.94,1.49,0,.86-.81,1.48-1.34,1.68,1.31.15,2.05.76,2.05,1.85Zm-4.86-4.84v2.96h2.22c.58,0,1.07-.2,1.07-1.19s-.53-1.77-1.97-1.77h-1.33Zm3.99,5.2c0-.99-.26-2.05-2.28-2.05h-1.71v3.76c.67.17,1.44.24,1.96.24,1.41,0,2.03-.44,2.03-1.94Z"/>
        <path class="cls-1" d="m110.22,182.69v.03h-1.73v-.18l-2.14-2.93h-1.58v2.5c0,.39.38.5.82.56v.05h-2.51v-.05c.44-.05.82-.17.82-.56v-6.29c0-.39-.38-.5-.82-.56v-.05h3.61c1.62,0,2.73.67,2.73,1.94,0,1.15-.82,2.03-2.15,2.34l1.35,1.82c.63.87,1.04,1.11,1.6,1.39Zm-3.77-3.29c1.47,0,2.11-.39,2.11-1.88,0-1.04-.32-2.13-2.45-2.13h-1.33v3.78c.58.16,1.07.23,1.68.23Z"/>
        <path class="cls-1" d="m119.44,182.68v.04h-2.8v-.04c.75-.06,1.18-.3.81-1.25l-.21-.54h-4.25l-.24.54c-.4.92.03,1.12.63,1.25v.04h-1.98v-.04c.45-.13.71-.33,1.11-1.26l2.41-5.55-.02-.18.15-.12.85-.64c0,.1,0,.16.23.72l2.27,5.73c.39.99.58,1.25,1.06,1.31Zm-2.29-1.98l-1.98-4.92-2.13,4.92h4.1Z"/>
        <path class="cls-1" d="m126.06,177.42h-.04c.14-1.46-.38-2.05-1.43-2.05h-1v6.64c0,.49.38.61,1.03.67v.05h-2.94v-.05c.66-.05,1.03-.17,1.03-.67v-6.64h-.41c-1.63,0-1.98.59-2.6,2.05h-.04l.35-2.21h6.74l-.69,2.21Z"/>
        <path class="cls-1" d="m128.08,182.67c.44-.05.82-.17.82-.56v-6.29c0-.39-.38-.5-.82-.56v-.05h2.51v.05c-.44.05-.82.17-.82.56v6.29c0,.39.38.5.82.56v.05h-2.51v-.05Z"/>
        <path class="cls-1" d="m140.08,178.97c0,2.42-1.8,3.91-3.99,3.91s-4-1.49-4-3.91,1.8-3.91,4-3.91,3.99,1.49,3.99,3.91Zm-.93.59c0-2.17-1.46-4.31-3.48-4.31-1.59,0-2.63,1.28-2.63,3.12,0,2.18,1.46,4.32,3.48,4.32,1.59,0,2.63-1.28,2.63-3.13Z"/>
        <path class="cls-1" d="m149.26,175.21v.05c-.44.05-.82.17-.82,1.63v4.05c0,1.12.03,1.68.05,2.06l-.02.02-5.65-6.71v4.51c0,1.46.38,1.79.82,1.85v.05h-1.85v-.05c.44-.05.82-.17.82-1.63v-4.98c-.37-.43-.63-.68-.98-.85h1.6c.09.14.17.38.44.66l4.53,5.41v-4.17c0-1.46-.38-1.79-.82-1.85v-.05h1.87Z"/>
      </g>
      <g>
        <path class="cls-1" d="m75.95,186.67h1.58c1.21,0,2.03.76,2.03,1.88s-.82,1.88-2.03,1.88h-1.58v-3.76Zm1.55,3.29c.93,0,1.53-.57,1.53-1.41s-.6-1.41-1.53-1.41h-1.02v2.83h1.02Z"/>
        <path class="cls-1" d="m80.92,186.67h.54v3.76h-.54v-3.76Z"/>
        <path class="cls-1" d="m85.52,189.49h-2l-.41.94h-.55l1.7-3.76h.53l1.71,3.76h-.56l-.41-.94Zm-.19-.43l-.81-1.84-.81,1.84h1.62Z"/>
        <path class="cls-1" d="m91.08,190.43v-2.74s-1.36,2.28-1.36,2.28h-.25l-1.36-2.27v2.72h-.52v-3.76h.44l1.57,2.64,1.55-2.64h.44v3.76s-.51,0-.51,0Z"/>
        <path class="cls-1" d="m92.95,188.55c0-1.1.85-1.92,2-1.92s1.99.82,1.99,1.92-.85,1.92-1.99,1.92-2-.82-2-1.92Zm3.46,0c0-.83-.62-1.45-1.46-1.45s-1.47.61-1.47,1.45.62,1.44,1.47,1.44,1.46-.61,1.46-1.44Z"/>
        <path class="cls-1" d="m101.53,186.67v3.76h-.44l-2.26-2.8v2.8h-.54v-3.76h.44l2.26,2.8v-2.8h.54Z"/>
        <path class="cls-1" d="m103.2,186.67h1.58c1.21,0,2.03.76,2.03,1.88s-.82,1.88-2.03,1.88h-1.58v-3.76Zm1.55,3.29c.93,0,1.53-.57,1.53-1.41s-.6-1.41-1.53-1.41h-1.02v2.83h1.02Z"/>
        <path class="cls-1" d="m107.82,190l.2-.42c.28.25.76.43,1.24.43.65,0,.93-.25.93-.58,0-.92-2.28-.34-2.28-1.73,0-.58.45-1.07,1.44-1.07.44,0,.9.12,1.21.33l-.18.43c-.33-.21-.7-.31-1.03-.31-.64,0-.91.27-.91.6,0,.92,2.28.34,2.28,1.72,0,.58-.46,1.07-1.46,1.07-.57,0-1.14-.19-1.44-.47Z"/>
        <path class="cls-1" d="m113.68,190l.2-.42c.28.25.76.43,1.24.43.65,0,.93-.25.93-.58,0-.92-2.28-.34-2.28-1.73,0-.58.45-1.07,1.44-1.07.44,0,.9.12,1.21.33l-.18.43c-.33-.21-.7-.31-1.03-.31-.64,0-.91.27-.91.6,0,.92,2.28.34,2.28,1.72,0,.58-.46,1.07-1.46,1.07-.57,0-1.14-.19-1.44-.47Z"/>
        <path class="cls-1" d="m118.58,187.14h-1.29v-.47h3.11v.47h-1.29v3.29h-.53v-3.29Z"/>
        <path class="cls-1" d="m121.42,188.81v-2.14h.54v2.12c0,.83.38,1.21,1.06,1.21s1.06-.38,1.06-1.21v-2.12h.52v2.14c0,1.09-.6,1.67-1.59,1.67s-1.59-.58-1.59-1.67Z"/>
        <path class="cls-1" d="m126.24,186.67h1.58c1.21,0,2.03.76,2.03,1.88s-.82,1.88-2.03,1.88h-1.58v-3.76Zm1.55,3.29c.93,0,1.53-.57,1.53-1.41s-.6-1.41-1.53-1.41h-1.02v2.83h1.02Z"/>
        <path class="cls-1" d="m131.21,186.67h.54v3.76h-.54v-3.76Z"/>
        <path class="cls-1" d="m133.11,188.55c0-1.1.85-1.92,2-1.92s1.99.82,1.99,1.92-.85,1.92-1.99,1.92-2-.82-2-1.92Zm3.46,0c0-.83-.62-1.45-1.46-1.45s-1.47.61-1.47,1.45.62,1.44,1.47,1.44,1.46-.61,1.46-1.44Z"/>
      </g>
    </g>
  </g>
</svg>