<svg id="Layer_1" data-name="Layer 1" xmlns="http://www.w3.org/2000/svg" viewBox="0 0 595.28 841.89"><defs><style>.cls-1{font-size:34.97px;font-family:PlayfairDisplay-Black, Playfair Display;font-weight:800;}.cls-1,.cls-5{fill:#1f4386;}.cls-2{letter-spacing:-0.02em;}.cls-3{letter-spacing:-0.01em;}.cls-4{letter-spacing:-0.02em;}.cls-6,.cls-7{fill:gray;}.cls-7{font-size:15.9px;font-family:Lora-Regular, Lora;letter-spacing:0.1em;}.cls-8{letter-spacing:0.08em;}.cls-9{letter-spacing:0.1em;}.cls-10{letter-spacing:0.09em;}.cls-11{letter-spacing:0.08em;}.cls-12{letter-spacing:0.07em;}.cls-13{letter-spacing:0.1em;}</style></defs><text class="cls-1" transform="translate(149.8 467.88)">TH<tspan class="cls-2" x="53.43" y="0">A</tspan><tspan x="76.93" y="0">NTI RES</tspan><tspan class="cls-3" x="218.18" y="0">O</tspan><tspan x="246.82" y="0">R</tspan><tspan class="cls-4" x="272.03" y="0">T</tspan></text><path class="cls-5" d="M476.61,422.46H473c-11.06,0-22.12,0-33.17,0a10.44,10.44,0,0,1-4.58-1.17q-48.94-25.69-97.81-51.55a6.28,6.28,0,0,0-6.76-.09q-49.08,26.07-98.28,51.88a6.06,6.06,0,0,1-2.64.92c-12.77.06-25.53,0-38.3,0l-.27-.69,86.39-45.54c-5.25-2.77-10-5.37-14.94-7.78-.62-.31-1.8.16-2.58.57q-45.51,23.92-91,47.92c-2.95,1.55-5.87,3.15-8.85,4.64a7.16,7.16,0,0,1-2.95.86c-12.3.05-24.59,0-36.89,0a15.36,15.36,0,0,1-1.82-.31c3.32-1.77,6-3.22,8.73-4.65q66.11-34.83,132.18-69.68a4.61,4.61,0,0,1,5-.06c10.39,5.6,20.89,11,31.3,16.58a4.21,4.21,0,0,0,4.49,0q15.87-8.49,31.87-16.74a4.84,4.84,0,0,1,3.84,0q28.5,14.85,56.9,29.9c1,.52,2,1,3.39,1.72V365.9h18.94c0,.87.14,1.79.14,2.7,0,6,.09,12,0,18a3.78,3.78,0,0,0,2.34,4q28.62,15,57.14,30.07c.67.35,1.32.73,2,1.1Z"/><rect class="cls-6" x="321.79" y="396.84" width="11.81" height="11.81"/><rect class="cls-6" x="335.91" y="396.84" width="11.81" height="11.81"/><rect class="cls-6" x="335.91" y="410.6" width="11.81" height="11.81"/><rect class="cls-6" x="321.79" y="410.6" width="11.81" height="11.81"/><text class="cls-7" transform="translate(203.5 490.55)">AN <tspan class="cls-8" x="31.01" y="0">A</tspan><tspan class="cls-9" x="42.25" y="0">UTHENT</tspan><tspan class="cls-10" x="118.49" y="0">I</tspan><tspan class="cls-9" x="125.26" y="0">C S</tspan><tspan class="cls-11" x="154.33" y="0">T</tspan><tspan class="cls-12" x="165.71" y="0">A</tspan><tspan class="cls-13" x="176.71" y="0">Y</tspan></text></svg>